# xmcd CD database file
#
# Track frame offsets:
#	150
#	53688
#	107380
#	161160
#
# Disc length: 2878 seconds
#
# Revision: 1
# Processed by: cddbd v1.5.1PL2 Copyright (c) Steve Scherf et al.
# Submitted via: CDex 1.51
#
DISCID=270b3c04
DTITLE=Living Well - Relaxation  [CD)
DYEAR=1996
DGENRE=New Age
TTITLE0=Garden Pleasures
TTITLE1=Journey into Relaxation
TTITLE2=Rhythmic Tides of Relaxation
TTITLE3=Soothing Storms of Relaxation
EXTD=YEAR: 1996
EXTT0=
EXTT1=
EXTT2=
EXTT3=
PLAYORDER=
